<svg id="Warstwa_1" data-name="Warstwa 1" xmlns="http://www.w3.org/2000/svg" viewBox="0 0 498.83 66.02"><defs><style>.cls-1{fill:#1d1d1b;}</style></defs><title>ola</title><path class="cls-1" d="M94.3,425.31a2.78,2.78,0,0,0,1.22,2.36,1.83,1.83,0,0,0,1,.23,9.79,9.79,0,0,0,4.47-1.72L78.65,442.54c2.29-1.84,3.42-4.56,4.56-7.17H67.72L62.8,444H49.74l7.15-11.38a9,9,0,0,0,1.19-2.75c.1-.62-.16-.94-.77-.94a5.31,5.31,0,0,0-1.81.52c-.88.35-1.78.74-2.72,1.16s-1.84.91-2.72,1.33l-1.84,1L64.06,421.2l27-19.78,3.27,23.73ZM63,419.72l-.32.22.32-.22a19,19,0,0,0,1.49-1.3,34.24,34.24,0,0,0,4.1-4.49l10.51-16.72h0l0-.06h4.43a23.65,23.65,0,0,0,11.18-2.72c1.14-.61,2.3-1.23,3.46-1.87s2.2-1.2,3.17-1.75,1.78-1,2.49-1.39,1.17-.65,1.42-.81Zm32.27,12.9,3.85-2.82A12.63,12.63,0,0,0,96,434.85a4.49,4.49,0,0,0-.16,1.94,1.72,1.72,0,0,1,0,.42l.94,6.79H85.44c-5.27.58-13.68,5.92-18.14,9.18l16.26-12v0l11.74-8.6ZM73,426.18h9.47l-1.1-14.71Z" transform="translate(-48.22 -387.93)"/><path class="cls-1" d="M113.05,450.5l.65-.65c.29-.35.64-.74,1-1.2s.74-.93,1.1-1.42a6.57,6.57,0,0,0,1.29-2.52.54.54,0,0,0-.45-.61H102.41L111,409.43,134.68,392c-.16.23-.61.68-1.29,1.42-1.65,1.81-3.27,3.66-4.79,5.56a21.56,21.56,0,0,0-4.91,9.19h0l-6.56,26.57h17.36Zm12.22-53.84-22.15,16.27c.16-.2.62-.68,1.3-1.43,1.64-1.81,3.23-3.65,4.81-5.53a20.71,20.71,0,0,0,4.69-8.43l.23-.88Zm19.85,32.95c-1,1.13-2,2.2-2.94,3.27-1.2,1.35-2.39,2.71-3.49,4.13a9.23,9.23,0,0,0-.87,1.17,19.68,19.68,0,0,0-2,4c-.23.67-.42,1.29-.58,1.9v0h-9.77Z" transform="translate(-48.22 -387.93)"/><path class="cls-1" d="M199.06,390.49c-3.37,3.46-7.05,8.44-8.61,13.09l-.67,2.75h-8.9l-.22,0a4.16,4.16,0,0,0-2.88,1.07c-2.49,1.81-4.95,3.69-7.37,5.59-.81.62-1.33,1.07-1.62,1.3a4.6,4.6,0,0,0-.74.64.66.66,0,0,0-.16.36c0,.1,0,.19.19.22h16l-2.19,9H163.52L160.9,435h17.27l-20.66,15.13c.16-.16.45-.38.84-.74s.77-.71,1.19-1.13c.68-.68,2.53-2.52,2.65-3.53,0-.25-.12-.42-.45-.45H146.29c.58-2.36,1.1-4.43,1.55-6.27.39-1.49.74-3,1.1-4.46.13-.55.22-1,.32-1.36a4.91,4.91,0,0,1,.16-.58.69.69,0,0,0-.13-.71,1.07,1.07,0,0,0-.71-.2,5.5,5.5,0,0,0-1.1.16,19.67,19.67,0,0,0-2.91,1c-1.81.74-3.55,1.61-5.3,2.52Zm-32.47,21.56-15,11.06L158,397.05h29l-12.64,9.28H168Zm18.53,20.18a16.05,16.05,0,0,0-3.36,6.27l-1.46,5.82h-7.79c-3.07.23-13.39,7.12-16.62,9.31Z" transform="translate(-48.22 -387.93)"/><path class="cls-1" d="M196.18,420.75c.06-.42.13-.84.16-1.23a3.34,3.34,0,0,0-.07-1,1.44,1.44,0,0,0-.35-.71,1.18,1.18,0,0,0-.81-.26,4.65,4.65,0,0,0-1.75.45c-1,.42-1.9.84-2.74,1.26s-1.59.78-2.24,1.07-1.42.71-2,1.07l27-19.86-3.68,14.94,19-19.88H244l-22,21.08,1.46,3.78c.32.87.68,1.78,1,2.65.13.36.23.62.32.84a1.5,1.5,0,0,1,.13.39c.65,1.52,1.56,2.49,3.3,2.49A11.4,11.4,0,0,0,233.3,426c-.13.1-.49.32-1,.74-.74.55-1.68,1.23-2.84,2.07s-2.49,1.85-4,2.95-3,2.23-4.59,3.36l-12.42,9.12.78-.78a20.79,20.79,0,0,0,5-7,3.65,3.65,0,0,0,.13-1.71l-2.78-8-5.66,4.72L202.81,444H190.45Zm-3.17-6.6c1.87-1.51,5.69-4.81,6.59-7.14l2.59-10.44h5.27A26.76,26.76,0,0,0,218,393.82l3.5-1.94,3.2-1.75c1-.55,1.81-1,2.52-1.42l1.45-.78Zm6.21,39.19c.22-.16.45-.35.68-.51l27.77-20.37,4.4,11.54H217.74c-5.4.61-13.29,5.56-17.84,8.83Z" transform="translate(-48.22 -387.93)"/><path class="cls-1" d="M281.15,431.45c-2.49,9.9-12.42,13.42-21.6,13.42-4.56,0-10.09-1-13.61-4.17a2.18,2.18,0,0,0-1-.19,7.2,7.2,0,0,0-2,.32,37,37,0,0,0-8,3.69c-2.1,1.16-4.33,2.49-6.63,4l26.77-19.62c-.58,2.42-.39,4.2.58,5.3s3,1.71,5.92,1.71,6.37-1.19,7.15-4.43a3.5,3.5,0,0,0-.78-3.62,16.55,16.55,0,0,0-5.59-2.81c-.49-.16-.94-.32-1.36-.49l10.54-7.76A25.55,25.55,0,0,1,276.1,419Q283.14,423.54,281.15,431.45Zm-23.06-7.05a3.13,3.13,0,0,1-.35.26l-15,11a13.93,13.93,0,0,1,.06-7l.07-.22h3.58v0a20.73,20.73,0,0,0,11.29-3.75ZM249,409.5c2.33-9.48,13.45-13.39,22.31-13.39,5.56,0,12,1.59,14.45,7.12a1.07,1.07,0,0,1,.16.32c0,.13.07.26.1.36l-14.32,10.54a6.7,6.7,0,0,0,2.1-3.17l.1-.39c.48-1.81.25-3.2-.65-4.14a5.64,5.64,0,0,0-4.33-1.49c-3.14,0-6.73,1.2-7.67,4.5a2.86,2.86,0,0,0,1.1,2.94,19.67,19.67,0,0,0,6.21,2.94l.55.16.45.2L259,423.73a35.55,35.55,0,0,1-3.43-1.59C249.88,419.07,247.68,414.87,249,409.5Zm30.1,1.78,14.32-10.51c-.12.16-.42.48-.84,1s-.93,1-1.48,1.65A37.38,37.38,0,0,0,288.2,407a11.82,11.82,0,0,0-1.91,4.26h-.13v0Z" transform="translate(-48.22 -387.93)"/><path class="cls-1" d="M329.13,425.31a2.82,2.82,0,0,0,1.23,2.36,1.81,1.81,0,0,0,1,.23,9.75,9.75,0,0,0,4.46-1.72l-22.31,16.36c2.3-1.84,3.43-4.56,4.56-7.17H302.55L297.64,444H284.57l7.15-11.38a9.37,9.37,0,0,0,1.2-2.75c.09-.62-.16-.94-.78-.94a5.36,5.36,0,0,0-1.81.52c-.87.35-1.78.74-2.72,1.16l-2.71,1.33-1.84,1L298.9,421.2l27-19.78,3.27,23.73Zm-31.27-5.59-.32.22.32-.22a15.92,15.92,0,0,0,1.49-1.3,34.32,34.32,0,0,0,4.11-4.49L314,397.21h0l0-.06h4.43a23.69,23.69,0,0,0,11.19-2.72l3.46-1.87c1.13-.62,2.2-1.2,3.17-1.75s1.77-1,2.49-1.39,1.16-.65,1.42-.81Zm32.27,12.9L334,429.8a12.61,12.61,0,0,0-3.1,5.05,4.51,4.51,0,0,0-.17,1.94,1.3,1.3,0,0,1,0,.42l.93,6.79H320.27c-5.27.58-13.68,5.92-18.14,9.18l16.27-12v0l11.73-8.6Zm-22.34-6.44h9.47l-1.1-14.71Z" transform="translate(-48.22 -387.93)"/><path class="cls-1" d="M376.79,410.57l29.26-21.44a68.56,68.56,0,0,0-6.89,6.11c-4,4-7.85,8.83-9.76,14.19l-8.63,34.92H368.64c-1.23-3.52-2.33-6.69-3.26-9.47-.59-1.68-1-3-1.39-4s-.65-1.87-.94-2.68c-.07-.2-1-2.85-1-2.88-.3-.84-.72-1.26-1.3-1.26-1.06,0-3.26,2-3.91,2.78a6.1,6.1,0,0,0-1.13,1.87l-3.88,15.65h-9.7a39.09,39.09,0,0,0-12.26,2.49,37.64,37.64,0,0,0-4.13,1.69c-1.07.54-1.75.87-2,1l46.14-33.89,3.3,9.61ZM357.2,422.69l-15.14,11.09,9.15-36.92H363.4l5.82,17-8.86,6.53L358.84,416Zm35.14-25.83-20.85,15.32c3.3-3.13,6.92-9.73,8.44-14.26l.25-1.06Z" transform="translate(-48.22 -387.93)"/><path class="cls-1" d="M416.17,414.09l-26,19.08c4.39-3.75,11.86-11.68,13.25-17.56l4.66-18.69H424A21,21,0,0,1,435.31,400l-14.48,10.67,1-1a13.48,13.48,0,0,0,2.13-2.55c.19-.39.16-.65-.06-.78a10.48,10.48,0,0,0-2.07-.19h-3.69Zm-13.06,35a30.55,30.55,0,0,0,2.91-2.78,7.34,7.34,0,0,0,1-1.42c.16-.42,0-.65-.39-.68H396.41l4-16.23,15.07-11.06-4.46,18h3.65c8,0,11.84-6.6,13.52-13.45l.48-2c1.14-4.43,1.07-7.76-.13-10a4.7,4.7,0,0,0-1.06-1.39l17.78-13c-1.81,1.75-4.36,4.27-5.5,6.53a6.6,6.6,0,0,0-.51,1.27,1.89,1.89,0,0,0,0,1.06,14.24,14.24,0,0,1,1.87,3.95,20.82,20.82,0,0,1,.1,11.64l-.49,2Zm41.32-28c-.16.16-.48.55-1,1.13a77.11,77.11,0,0,0-6.11,7.73,29.37,29.37,0,0,1-24.41,14.29Z" transform="translate(-48.22 -387.93)"/><path class="cls-1" d="M440.84,454c.16-.1.29-.23.45-.33l19.47-14.35-1.13,4.91c-5.82,1.17-13.46,5.85-18.34,9.44Zm52.7-42.72c-1.61,6.6-5.49,10.8-11.7,13.42l3.52,12.13v0l2.17,7.4H474l-4.49-16.52h-5.89l-1.48,5.95a1,1,0,0,0,.19.39c.1.16.29.22.62.22A3.31,3.31,0,0,0,464,434a13.39,13.39,0,0,0,1.75-.68,7.61,7.61,0,0,0-.65.45L463.44,435c-.68.52-1.49,1.1-2.36,1.75-3.39,2.42-6.76,4.91-10.12,7.4h-3.78l5.53-22.41c-.13-.84-.46-1.16-1.36-1.16a6,6,0,0,0-2.23.58c-1,.42-1.88.84-2.72,1.26s-1.62.78-2.26,1.07-1.43.71-2,1.07l12.13-8.9v0L480,396.73c4,.13,8.15,1,11.19,3.75Q495.31,404.3,493.54,411.24Zm-38.63,1.62,4-16.17H469a26.52,26.52,0,0,0,9.22-2.65c.87-.48,1.78-1,2.68-1.48l2.56-1.43,2.29-1.26c.68-.39,1.3-.71,1.81-1Zm25.6-5.24c-.77-1.06-2.23-1.61-4.33-1.61H469l-3,12.28h7c4.17,0,7-2.1,8-6.17C481.48,410.18,481.32,408.69,480.51,407.62Z" transform="translate(-48.22 -387.93)"/><path class="cls-1" d="M536,425.31a2.77,2.77,0,0,0,1.23,2.36,1.79,1.79,0,0,0,1,.23,9.79,9.79,0,0,0,4.46-1.72l-22.31,16.36c2.29-1.84,3.42-4.56,4.56-7.17H509.42L504.5,444H491.44l7.15-11.38a9,9,0,0,0,1.19-2.75c.1-.62-.16-.94-.77-.94a5.31,5.31,0,0,0-1.81.52c-.88.35-1.78.74-2.72,1.16s-1.84.91-2.72,1.33l-1.84,1,15.84-11.71,27-19.78L536,425.15Zm-31.27-5.59-.32.22.32-.22a19,19,0,0,0,1.49-1.3,34.24,34.24,0,0,0,4.1-4.49l10.51-16.72h0l0-.06h4.43a23.65,23.65,0,0,0,11.18-2.72c1.14-.61,2.3-1.23,3.46-1.87s2.2-1.2,3.17-1.75,1.78-1,2.49-1.39,1.17-.65,1.42-.81ZM537,432.62l3.85-2.82a12.74,12.74,0,0,0-3.11,5.05,4.49,4.49,0,0,0-.16,1.94,1.72,1.72,0,0,1,0,.42l.94,6.79H527.14c-5.27.58-13.68,5.92-18.14,9.18l16.26-12v0l11.74-8.6Zm-22.34-6.44h9.47L523,411.47Z" transform="translate(-48.22 -387.93)"/></svg>